# xmcd
#
# Track frame offsets: 
#        180
#        24747
#        41902
#        62100
#        77912
#        96892
#        117077
#        135562
#        153925
#        173675
#        187362
#
# Disc length: 2747 seconds
#
# Revision: 5
# Processed by: cddbd v1.5.2PL0 Copyright (c) Steve Scherf et al.
# Submitted via: ExactAudioCopy v1.3
#
DISCID=950ab90b
DTITLE=Наталья Ветлицкая - Playboy
DYEAR=1994
DGENRE=Pop
TTITLE0=Dancing Generation
TTITLE1=Но только не говори мне...
TTITLE2=Здравствуй, грусть
TTITLE3=Пусть будет
TTITLE4=Аквалангисты любви
TTITLE5=Плей-бой
TTITLE6=На краю любви
TTITLE7=Я тебя больше не люблю
TTITLE8=Мотылек
TTITLE9=Лунный кот
TTITLE10=Моя звезда
EXTD=YEAR: 1994
EXTT0=
EXTT1=
EXTT2=
EXTT3=
EXTT4=
EXTT5=
EXTT6=
EXTT7=
EXTT8=
EXTT9=
EXTT10=
PLAYORDER=
